<mxfile host="app.diagrams.net" modified="2023-10-29T03:00:41.423Z" agent="Mozilla/5.0 (Windows NT 10.0; Win64; x64) AppleWebKit/537.36 (KHTML, like Gecko) Chrome/118.0.0.0 Safari/537.36" etag="f5fAzI27RU1Df2zVzR7q" version="22.0.8" type="github">
  <diagram name="Page-1" id="7bWsSjq75bXTcGjeXkPo">
    <mxGraphModel dx="2062" dy="1853" grid="1" gridSize="10" guides="1" tooltips="1" connect="1" arrows="1" fold="1" page="1" pageScale="1" pageWidth="827" pageHeight="1169" math="0" shadow="0">
      <root>
        <mxCell id="0" />
        <mxCell id="1" parent="0" />
        <mxCell id="_sxlR1j6QaA3bBYRQmyJ-18" value="" style="edgeStyle=orthogonalEdgeStyle;rounded=0;orthogonalLoop=1;jettySize=auto;html=1;entryX=-0.01;entryY=0.501;entryDx=0;entryDy=0;entryPerimeter=0;" edge="1" parent="1" source="2" target="_sxlR1j6QaA3bBYRQmyJ-13">
          <mxGeometry relative="1" as="geometry" />
        </mxCell>
        <mxCell id="2" value="RULE-BASED MACHINE TRANSLATION" style="whiteSpace=wrap;strokeWidth=2;fontSize=10;" parent="1" vertex="1">
          <mxGeometry width="200" height="33" as="geometry" />
        </mxCell>
        <mxCell id="_sxlR1j6QaA3bBYRQmyJ-12" value="" style="endArrow=none;html=1;rounded=0;" edge="1" parent="1">
          <mxGeometry width="50" height="50" relative="1" as="geometry">
            <mxPoint y="40" as="sourcePoint" />
            <mxPoint x="140" y="40" as="targetPoint" />
          </mxGeometry>
        </mxCell>
        <mxCell id="_sxlR1j6QaA3bBYRQmyJ-13" value="EXAMPLE-BASED MACHINE TRANSLTAT    " style="whiteSpace=wrap;strokeWidth=2;fontSize=10;" vertex="1" parent="1">
          <mxGeometry x="240" width="200" height="33" as="geometry" />
        </mxCell>
        <mxCell id="_sxlR1j6QaA3bBYRQmyJ-21" value="STATISTICAL-BASED MACHINE TRANSLATION        " style="whiteSpace=wrap;strokeWidth=2;fontSize=10;" vertex="1" parent="1">
          <mxGeometry x="480" width="200" height="33" as="geometry" />
        </mxCell>
        <mxCell id="_sxlR1j6QaA3bBYRQmyJ-22" value="" style="edgeStyle=orthogonalEdgeStyle;rounded=0;orthogonalLoop=1;jettySize=auto;html=1;entryX=-0.01;entryY=0.501;entryDx=0;entryDy=0;entryPerimeter=0;" edge="1" target="_sxlR1j6QaA3bBYRQmyJ-21" parent="1">
          <mxGeometry relative="1" as="geometry">
            <mxPoint x="440" y="17" as="sourcePoint" />
          </mxGeometry>
        </mxCell>
        <mxCell id="_sxlR1j6QaA3bBYRQmyJ-23" value="NERUAL MACHINE TRANSLATION" style="whiteSpace=wrap;strokeWidth=2;fontSize=10;" vertex="1" parent="1">
          <mxGeometry x="720" width="200" height="33" as="geometry" />
        </mxCell>
        <mxCell id="_sxlR1j6QaA3bBYRQmyJ-24" value="" style="edgeStyle=orthogonalEdgeStyle;rounded=0;orthogonalLoop=1;jettySize=auto;html=1;entryX=-0.01;entryY=0.501;entryDx=0;entryDy=0;entryPerimeter=0;" edge="1" target="_sxlR1j6QaA3bBYRQmyJ-23" parent="1">
          <mxGeometry relative="1" as="geometry">
            <mxPoint x="680" y="17" as="sourcePoint" />
          </mxGeometry>
        </mxCell>
      </root>
    </mxGraphModel>
  </diagram>
</mxfile>
